<svg width="60" height="60" viewBox="0 0 60 60" fill="none" xmlns="http://www.w3.org/2000/svg">
<path opacity="0.21" fill-rule="evenodd" clip-rule="evenodd" d="M0 30V37C0 49.7025 10.2975 60 23 60H30H37C49.7025 60 60 49.7025 60 37V30V23C60 10.2975 49.7025 0 37 0H30H23C10.2975 0 0 10.2975 0 23V30Z" fill="#3394A7"/>
<path d="M28.7976 29.9C27.6245 29.9 26.6202 29.479 25.7848 28.6369C24.9494 27.7948 24.5317 26.7825 24.5317 25.6C24.5317 24.4175 24.9494 23.4052 25.7848 22.5631C26.6202 21.721 27.6245 21.3 28.7976 21.3C29.9707 21.3 30.975 21.721 31.8104 22.5631C32.6458 23.4052 33.0635 24.4175 33.0635 25.6C33.0635 26.7825 32.6458 27.7948 31.8104 28.6369C30.975 29.479 29.9707 29.9 28.7976 29.9ZM20.2659 38.5V35.49C20.2659 34.8808 20.4214 34.3209 20.7324 33.8103C21.0435 33.2997 21.4568 32.91 21.9722 32.6413C23.0742 32.0858 24.194 31.6693 25.3316 31.3916C26.4692 31.1139 27.6245 30.975 28.7976 30.975C29.9707 30.975 31.1261 31.1139 32.2636 31.3916C33.4012 31.6693 34.521 32.0858 35.623 32.6413C36.1385 32.91 36.5517 33.2997 36.8628 33.8103C37.1738 34.3209 37.3294 34.8808 37.3294 35.49V38.5H20.2659ZM22.3988 36.35H35.1964V35.49C35.1964 35.2929 35.1475 35.1138 35.0498 34.9525C34.952 34.7913 34.8232 34.6658 34.6632 34.5763C33.7034 34.0925 32.7347 33.7297 31.7571 33.4878C30.7795 33.2459 29.793 33.125 28.7976 33.125C27.8022 33.125 26.8158 33.2459 25.8382 33.4878C24.8606 33.7297 23.8919 34.0925 22.932 34.5763C22.7721 34.6658 22.6432 34.7913 22.5454 34.9525C22.4477 35.1138 22.3988 35.2929 22.3988 35.49V36.35ZM28.7976 27.75C29.3842 27.75 29.8863 27.5395 30.304 27.1184C30.7217 26.6974 30.9306 26.1913 30.9306 25.6C30.9306 25.0088 30.7217 24.5026 30.304 24.0816C29.8863 23.6605 29.3842 23.45 28.7976 23.45C28.2111 23.45 27.7089 23.6605 27.2912 24.0816C26.8735 24.5026 26.6647 25.0088 26.6647 25.6C26.6647 26.1913 26.8735 26.6974 27.2912 27.1184C27.7089 27.5395 28.2111 27.75 28.7976 27.75Z" fill="#2D788D"/>
</svg>
